<?xml version="1.0" encoding="UTF-8"?>

<svg width="54" height="54" viewBox="0 0 54 48" fill="none" xmlns="http://www.w3.org/2000/svg">
    <path d="M29.04 4.30891C28.2491 5.11573 27 6.92077 27 6.92077C27 6.92077 25.7509 5.11573 24.96 4.30891C19.3262 -1.43629 10.1922 -1.43629 4.55859 4.30891C-0.769253 9.74227 -1.05848 18.3682 3.69093 24.1483H8.91419L14.3539 16.4337C14.8535 15.7251 15.6663 15.3037 16.5333 15.3037C17.4002 15.3037 18.213 15.7251 18.7126 16.4337L24.1523 24.1483H32.748C34.2208 24.1483 35.4147 25.3421 35.4147 26.8149C35.4147 28.2875 34.2208 29.4816 32.748 29.4816H22.7699C21.9029 29.4816 21.09 29.06 20.5904 28.3515L16.5333 22.5979L12.4762 28.3515C11.9766 29.06 11.1637 29.4816 10.2968 29.4816H8.84109L26.048 47.0291C26.5707 47.5621 27.4293 47.5621 27.952 47.0291L49.4413 25.1141C55.0752 19.3691 55.0752 10.0541 49.4413 4.30891C43.8077 -1.43629 34.6739 -1.43629 29.04 4.30891Z" fill="url(#paint0_linear_759_4136)"/>
    <defs>
        <linearGradient id="paint0_linear_759_4136" x1="37" y1="56" x2="-9" y2="-6" gradientUnits="userSpaceOnUse">
            <stop stop-color="#FB2D2D"/>
            <stop offset="0.0001" stop-color="#FB2D2D"/>
            <stop offset="1" stop-color="#FF9696"/>
        </linearGradient>
    </defs>
</svg>
