<?xml version="1.0" encoding="UTF-8"?>

<svg width="55" height="70" viewBox="0 0 62 76" fill="none" xmlns="http://www.w3.org/2000/svg">
    <path d="M16.8372 10.6803H9.91861C6.09756 10.6803 3 13.7805 3 17.6047V66.0756C3 69.8999 6.09756 73 9.91861 73H51.4302C55.2514 73 58.3488 69.8999 58.3488 66.0756V17.6047C58.3488 13.7805 55.2514 10.6803 51.4302 10.6803H44.5116M16.8372 10.6803V14.1426C16.8372 17.9668 19.9348 21.067 23.7558 21.067H37.593C41.4142 21.067 44.5116 17.9668 44.5116 14.1426V10.6803M16.8372 10.6803C16.8372 7.81217 19.1604 5.48705 22.0262 5.48705H23.6482C23.718 5.48705 23.7859 5.46434 23.842 5.42238L24.6943 4.78253C28.1526 2.18667 32.9742 2.4515 36.1277 5.4105C36.1802 5.45967 36.2494 5.48705 36.321 5.48705H38.562C41.848 5.48705 44.5116 7.39172 44.5116 10.6803M16.8372 45.3024H22.9871L26.8308 34.9157L34.1337 55.689L38.746 45.3024H44.5116" stroke="#317AFF" stroke-width="6" stroke-linecap="round" stroke-linejoin="round"/>
</svg>
