<?xml version="1.0" encoding="UTF-8"?>

<svg width="55" height="51" viewBox="0 0 55 51" fill="none" xmlns="http://www.w3.org/2000/svg">
    <path d="M41.6667 49V46.2353C41.6667 43.1814 39.1297 40.7059 36 40.7059M36 40.7059H19M36 40.7059H47.3333C50.463 40.7059 53 38.2304 53 35.1765V7.52941C53 4.4756 50.463 2 47.3333 2H7.66667C4.53705 2 2 4.4756 2 7.52941V35.1765C2 38.2304 4.53705 40.7059 7.66667 40.7059H19M13.3333 49V46.2353C13.3333 43.1814 15.8704 40.7059 19 40.7059M13.3333 21.3529H21.2037L24.3519 13.0588L30.3333 29.6471L34.111 21.3529H41.6667" stroke="#317AFF" stroke-width="4" stroke-linecap="round" stroke-linejoin="round"/>
</svg>
