<?xml version="1.0" encoding="UTF-8"?>

<svg width="64" height="64" viewBox="0 0 64 64" fill="none" xmlns="http://www.w3.org/2000/svg">
    <path d="M24.5589 57.7365C19.4531 57.7293 14.5586 55.6969 10.9494 52.0852C7.34032 48.4735 5.31135 43.5776 5.30774 38.4717C5.30774 21.801 22.3471 3.43722 23.0571 2.65898C23.2447 2.43714 23.4791 2.25964 23.7435 2.13924C24.0079 2.01884 24.2957 1.95853 24.5862 1.96266C24.8725 1.9642 25.1553 2.02575 25.4164 2.14333C25.6774 2.26092 25.9109 2.43193 26.1018 2.64533C26.5523 3.16416 37.1746 15.302 41.7621 27.9996C41.8753 28.2573 41.934 28.5357 41.9348 28.8171C41.9355 29.0986 41.8783 29.3773 41.7665 29.6356C41.6548 29.894 41.4909 30.1266 41.2853 30.3188C41.0797 30.511 40.8366 30.6588 40.5713 30.7528C40.306 30.8469 40.0241 30.8853 39.7433 30.8656C39.4625 30.8459 39.1888 30.7685 38.9392 30.6382C38.6897 30.508 38.4697 30.3277 38.2929 30.1086C38.1161 29.8895 37.9864 29.6364 37.9119 29.3649C34.5805 20.1216 27.59 10.9056 24.518 7.12362C20.422 11.9842 9.40374 26.1018 9.40374 38.3898C9.40735 42.4093 11.0048 46.2634 13.8458 49.1069C16.6867 51.9505 20.5394 53.5514 24.5589 53.5586C27.0095 53.5662 29.4243 52.9707 31.5904 51.8246C32.072 51.5712 32.6346 51.5194 33.1544 51.6807C33.6741 51.842 34.1086 52.2032 34.362 52.6848C34.6155 53.1664 34.6673 53.729 34.506 54.2488C34.3447 54.7685 33.9835 55.2029 33.5019 55.4564C30.7481 56.9257 27.6801 57.708 24.5589 57.7365Z" fill="#474747"/>
    <path d="M24.5589 57.7365C19.4531 57.7293 14.5586 55.6969 10.9494 52.0852C7.34032 48.4735 5.31135 43.5776 5.30774 38.4717C5.30774 21.801 22.3471 3.43722 23.0571 2.65898C23.2447 2.43714 23.4791 2.25964 23.7435 2.13924C24.0079 2.01884 24.2957 1.95853 24.5862 1.96266C24.8725 1.9642 25.1553 2.02575 25.4164 2.14333C25.6774 2.26092 25.9109 2.43193 26.1018 2.64533C26.5523 3.16416 37.1746 15.302 41.7621 27.9996C41.8753 28.2573 41.934 28.5357 41.9348 28.8171C41.9355 29.0986 41.8783 29.3773 41.7665 29.6356C41.6548 29.894 41.4909 30.1266 41.2853 30.3188C41.0797 30.511 40.8366 30.6588 40.5713 30.7528C40.306 30.8469 40.0241 30.8853 39.7433 30.8656C39.4625 30.8459 39.1888 30.7685 38.9392 30.6382C38.6897 30.508 38.4697 30.3277 38.2929 30.1086C38.1161 29.8895 37.9864 29.6364 37.9119 29.3649C34.5805 20.1216 27.59 10.9056 24.518 7.12362C20.422 11.9842 9.40374 26.1018 9.40374 38.3898C9.40735 42.4093 11.0048 46.2634 13.8458 49.1069C16.6867 51.9505 20.5394 53.5514 24.5589 53.5586C27.0095 53.5662 29.4243 52.9707 31.5904 51.8246C32.072 51.5712 32.6346 51.5194 33.1544 51.6807C33.6741 51.842 34.1086 52.2032 34.362 52.6848C34.6155 53.1664 34.6673 53.729 34.506 54.2488C34.3447 54.7685 33.9835 55.2029 33.5019 55.4564C30.7481 56.9257 27.6801 57.708 24.5589 57.7365Z" fill="url(#paint0_linear_759_4140)"/>
    <path d="M32.9694 31.4129C34.2536 31.3835 35.5278 31.6449 36.6968 32.1775C37.7201 32.656 38.6177 33.3666 39.3182 34.2528C40.027 35.172 40.5509 36.2199 40.861 37.3385C41.5351 39.8703 41.5351 42.5344 40.861 45.0662C40.5539 46.1943 40.0298 47.2516 39.3182 48.1792C38.6138 49.0616 37.7172 49.7714 36.6968 50.2545C35.5267 50.7824 34.2526 51.0391 32.9694 51.0054C31.6978 51.0395 30.4344 50.7924 29.2693 50.2818C28.2493 49.8102 27.3487 49.1149 26.6342 48.2475C25.8998 47.3265 25.3567 46.2682 25.0368 45.1345C24.6712 43.8562 24.4919 42.5319 24.5043 41.2024C24.4982 39.9038 24.6588 38.6098 24.9822 37.3521C25.2887 36.2254 25.818 35.1715 26.5387 34.2528C27.231 33.3639 28.1248 32.6526 29.1465 32.1775C30.3471 31.6384 31.6538 31.3771 32.9694 31.4129ZM32.9694 47.9744C33.7838 48.0063 34.5926 47.8276 35.3178 47.4556C35.9317 47.1326 36.4568 46.6638 36.8469 46.0902C37.2498 45.4372 37.5275 44.715 37.6661 43.9603C37.8348 43.0968 37.9172 42.2187 37.9119 41.3389C37.9145 40.4443 37.823 39.5519 37.6388 38.6765C37.4823 37.9056 37.1961 37.167 36.7923 36.492C36.4104 35.8867 35.8852 35.385 35.2632 35.031C34.5482 34.6762 33.7608 34.4915 32.9626 34.4915C32.1644 34.4915 31.377 34.6762 30.662 35.031C30.0429 35.3889 29.5186 35.8899 29.1328 36.492C28.729 37.1523 28.4426 37.8775 28.2863 38.6355C28.1025 39.4926 28.011 40.3668 28.0132 41.2433C28.0131 42.0732 28.0955 42.901 28.259 43.7146C28.4047 44.4844 28.6818 45.2233 29.0782 45.8991C29.4744 46.5093 30.0073 47.0189 30.6347 47.3873C31.3423 47.7985 32.1515 48.0019 32.9694 47.9744ZM55.2926 48.9301C55.2926 49.9678 54.9922 50.473 54.3915 50.473H44.6566C44.3699 50.473 44.1242 50.2682 43.9057 49.8586C43.6742 49.4035 43.5748 48.8927 43.619 48.384C43.6447 48.0936 43.695 47.8058 43.7692 47.5238C43.8554 47.2242 43.994 46.9422 44.1788 46.691C44.4129 46.3988 44.6785 46.1332 44.9707 45.8991L46.4179 44.6293C46.9641 44.1378 47.5375 43.5917 48.1519 42.9773C48.7554 42.3799 49.3165 41.7412 49.8313 41.0658C50.3295 40.4299 50.7597 39.7435 51.1147 39.0178C51.4421 38.3747 51.6151 37.6641 51.6198 36.9425C51.6475 36.36 51.4522 35.7888 51.0737 35.3451C50.8798 35.1448 50.6457 34.9878 50.3869 34.8843C50.1281 34.7808 49.8504 34.7331 49.5718 34.7443C49.2784 34.7224 48.984 34.7732 48.7149 34.8923C48.4458 35.0114 48.2102 35.1951 48.029 35.427C47.6212 36.0234 47.4286 36.7409 47.4829 37.4613C47.5046 37.6782 47.4833 37.8972 47.42 38.1057C47.3567 38.3143 47.2528 38.5083 47.1142 38.6765C46.7558 38.9501 46.3067 39.077 45.8581 39.0315C45.3503 39.0828 44.8391 38.9729 44.3972 38.7174C44.2503 38.5458 44.1405 38.3455 44.0748 38.1294C44.009 37.9132 43.9886 37.6858 44.0149 37.4613C43.9367 35.9295 44.4555 34.427 45.4622 33.2698C46.0463 32.7153 46.7415 32.2911 47.5017 32.0252C48.2619 31.7592 49.0698 31.6576 49.8722 31.7269C50.5735 31.6756 51.2779 31.7704 51.9407 32.0054C52.6034 32.2405 53.2102 32.6106 53.7225 33.0923C54.1848 33.5927 54.5435 34.1797 54.7778 34.8194C55.0122 35.4592 55.1175 36.139 55.0878 36.8196C55.089 37.4563 54.9828 38.0887 54.7738 38.6901C54.5504 39.332 54.2717 39.9533 53.9409 40.547C53.5849 41.1687 53.1881 41.7663 52.7531 42.3356C52.3162 42.909 51.8656 43.4552 51.3877 43.9603C50.9099 44.4655 50.2545 45.1618 49.6401 45.7353C49.0257 46.3087 48.384 46.8685 47.715 47.4146H54.3915C54.9922 47.3873 55.2926 47.9061 55.2926 48.9301Z" fill="url(#paint1_linear_759_4140)"/>
    <path d="M16.4079 47.1006C16.0448 47.1004 15.6881 47.0044 15.3741 46.8222C15.06 46.64 14.7996 46.3781 14.6193 46.0629C9.64947 37.3658 13.9366 31.6177 14.1278 31.3856C14.2918 31.1722 14.4963 30.9933 14.7295 30.8589C14.9627 30.7246 15.2201 30.6375 15.487 30.6026C15.7539 30.5678 16.025 30.5858 16.2849 30.6557C16.5448 30.7256 16.7884 30.8461 17.0018 31.0101C17.2152 31.1742 17.3941 31.3787 17.5285 31.6119C17.6628 31.8451 17.7499 32.1025 17.7848 32.3694C17.8196 32.6363 17.8016 32.9074 17.7317 33.1673C17.6617 33.4272 17.5413 33.6708 17.3773 33.8841C17.268 34.0207 14.6466 37.8027 18.1828 44.0286C18.4323 44.4945 18.492 45.0387 18.3495 45.5476C18.2071 46.0565 17.8734 46.4907 17.4182 46.7592C17.1169 46.9591 16.7686 47.0768 16.4079 47.1006Z" fill="#474747"/>
    <path d="M16.4079 47.1006C16.0448 47.1004 15.6881 47.0044 15.3741 46.8222C15.06 46.64 14.7996 46.3781 14.6193 46.0629C9.64947 37.3658 13.9366 31.6177 14.1278 31.3856C14.2918 31.1722 14.4963 30.9933 14.7295 30.8589C14.9627 30.7246 15.2201 30.6375 15.487 30.6026C15.7539 30.5678 16.025 30.5858 16.2849 30.6557C16.5448 30.7256 16.7884 30.8461 17.0018 31.0101C17.2152 31.1742 17.3941 31.3787 17.5285 31.6119C17.6628 31.8451 17.7499 32.1025 17.7848 32.3694C17.8196 32.6363 17.8016 32.9074 17.7317 33.1673C17.6617 33.4272 17.5413 33.6708 17.3773 33.8841C17.268 34.0207 14.6466 37.8027 18.1828 44.0286C18.4323 44.4945 18.492 45.0387 18.3495 45.5476C18.2071 46.0565 17.8734 46.4907 17.4182 46.7592C17.1169 46.9591 16.7686 47.0768 16.4079 47.1006Z" fill="url(#paint2_linear_759_4140)"/>
    <defs>
        <linearGradient id="paint0_linear_759_4140" x1="30.4888" y1="67.8158" x2="-24.4514" y2="24.5706" gradientUnits="userSpaceOnUse">
            <stop stop-color="#FB2D2D"/>
            <stop offset="0.0001" stop-color="#FB2D2D"/>
            <stop offset="1" stop-color="#FF9696"/>
        </linearGradient>
        <linearGradient id="paint1_linear_759_4140" x1="45.671" y1="54.5504" x2="29.216" y2="23.5662" gradientUnits="userSpaceOnUse">
            <stop stop-color="#FB2D2D"/>
            <stop offset="0.0001" stop-color="#FB2D2D"/>
            <stop offset="1" stop-color="#FF9696"/>
        </linearGradient>
        <linearGradient id="paint2_linear_759_4140" x1="16.4886" y1="50.0851" x2="3.96604" y2="44.4525" gradientUnits="userSpaceOnUse">
            <stop stop-color="#FB2D2D"/>
            <stop offset="0.0001" stop-color="#FB2D2D"/>
            <stop offset="1" stop-color="#FF9696"/>
        </linearGradient>
    </defs>
</svg>
