<?xml version="1.0" encoding="UTF-8"?>

<svg width="64" height="64" viewBox="0 0 28 63" fill="none" xmlns="http://www.w3.org/2000/svg">
    <path d="M20.3213 38.1388V7.38204C20.3213 3.85186 17.4493 0.979645 13.9191 0.979645C10.3885 0.979645 7.5163 3.85186 7.5163 7.38204V38.1388C3.32556 40.4568 0.66394 44.9177 0.66394 49.7442C0.66394 57.0529 6.61018 62.999 13.9191 62.999C21.2276 62.999 27.1737 57.0529 27.1737 49.7442C27.1737 44.9173 24.5122 40.4566 20.3213 38.1388ZM13.9191 60.2017C8.15269 60.2017 3.46123 55.5104 3.46123 49.7442C3.46123 45.6971 5.83393 41.9755 9.50617 40.263C9.74744 40.1505 9.95158 39.9714 10.0946 39.7469C10.2376 39.5223 10.3136 39.2616 10.3136 38.9954V25.6048H13.9187C14.2896 25.6048 14.6454 25.4574 14.9077 25.1951C15.17 24.9328 15.3173 24.5771 15.3173 24.2061C15.3173 23.8352 15.17 23.4795 14.9077 23.2172C14.6454 22.9549 14.2896 22.8075 13.9187 22.8075H10.3136V20.8094H13.9187C14.2896 20.8094 14.6454 20.6621 14.9077 20.3998C15.17 20.1375 15.3173 19.7817 15.3173 19.4108C15.3173 19.0398 15.17 18.6841 14.9077 18.4218C14.6454 18.1595 14.2896 18.0121 13.9187 18.0121H10.3136V16.0141H13.9187C14.2896 16.0141 14.6454 15.8667 14.9077 15.6044C15.17 15.3421 15.3173 14.9864 15.3173 14.6154C15.3173 14.2445 15.17 13.8887 14.9077 13.6264C14.6454 13.3641 14.2896 13.2168 13.9187 13.2168H10.3136V11.2187H13.9187C14.2896 11.2187 14.6454 11.0714 14.9077 10.8091C15.17 10.5468 15.3173 10.191 15.3173 9.82008C15.3173 9.44914 15.17 9.09339 14.9077 8.83109C14.6454 8.56879 14.2896 8.42144 13.9187 8.42144H10.3136V7.38184C10.3136 5.39397 11.931 3.77674 13.9191 3.77674C15.9068 3.77674 17.524 5.39397 17.524 7.38184V38.9952C17.524 39.2615 17.6 39.5222 17.743 39.7467C17.8861 39.9713 18.0903 40.1503 18.3316 40.2628C22.0037 41.9749 24.3764 45.6965 24.3764 49.744C24.3764 55.5104 19.6851 60.2017 13.9191 60.2017Z" fill="url(#paint0_linear_759_4157)"/>
    <path d="M20.9303 48.5719C20.5593 48.5719 20.2036 48.7193 19.9413 48.9816C19.679 49.2439 19.5316 49.5996 19.5316 49.9706C19.5316 53.0656 17.0137 55.5835 13.9187 55.5835C10.8237 55.5835 8.30571 53.0656 8.30571 49.9706C8.30571 47.7983 9.57948 45.8006 11.5506 44.8813C11.8868 44.7246 12.1469 44.4407 12.2738 44.0921C12.4007 43.7435 12.384 43.3588 12.2272 43.0226C12.0705 42.6864 11.7866 42.4262 11.438 42.2993C11.0894 42.1725 10.7047 42.1892 10.3685 42.346C7.41618 43.7228 5.50842 46.7155 5.50842 49.9704C5.50842 54.6077 9.28117 58.3806 13.9187 58.3806C18.5562 58.3806 22.3289 54.6079 22.3289 49.9704C22.3289 49.5995 22.1815 49.2438 21.9192 48.9815C21.6569 48.7193 21.3012 48.5719 20.9303 48.5719Z" fill="url(#paint1_linear_759_4157)"/>
    <defs>
        <linearGradient id="paint0_linear_759_4157" x1="18.8893" y1="74.2068" x2="-32.122" y2="48.0718" gradientUnits="userSpaceOnUse">
            <stop stop-color="#FB2D2D"/>
            <stop offset="0.0001" stop-color="#FB2D2D"/>
            <stop offset="1" stop-color="#FF9696"/>
        </linearGradient>
        <linearGradient id="paint1_linear_759_4157" x1="17.0725" y1="61.302" x2="1.0818" y2="41.359" gradientUnits="userSpaceOnUse">
            <stop stop-color="#FB2D2D"/>
            <stop offset="0.0001" stop-color="#FB2D2D"/>
            <stop offset="1" stop-color="#FF9696"/>
        </linearGradient>
    </defs>
</svg>
